# xmcd
#
# Track frame offsets:
#	150
#	18171
#	23813
#	80288
#	102113
#	106393
#	119450
#	130350
#	137904
#	147198
#	152811
#	163361
#	173993
#	192293
#	202748
#	230266
#	237467
#	256622
#	265215
#	277035
#	291599
#	302359
#
# Disc length: 4309 seconds
#
# Revision: 0
# Processed by: cddbd v1.5.1PL2 Copyright (c) Steve Scherf et al.
# Submitted via: EasyCDDAExtractor 8.2.1.1
#
DISCID=3610d316
DTITLE=Barok - Album
DYEAR=1900
DGENRE=
TTITLE0=Tytu³ utworu 1
TTITLE1=Tytu³ utworu 2
TTITLE2=Tytu³ utworu 3
TTITLE3=Tytu³ utworu 4
TTITLE4=Tytu³ utworu 5
TTITLE5=Tytu³ utworu 6
TTITLE6=Tytu³ utworu 7
TTITLE7=Tytu³ utworu 8
TTITLE8=Tytu³ utworu 9
TTITLE9=Tytu³ utworu 10
TTITLE10=Tytu³ utworu 11
TTITLE11=Tytu³ utworu 12
TTITLE12=Tytu³ utworu 13
TTITLE13=Tytu³ utworu 14
TTITLE14=Tytu³ utworu 15
TTITLE15=Tytu³ utworu 16
TTITLE16=Tytu³ utworu 17
TTITLE17=Tytu³ utworu 18
TTITLE18=Tytu³ utworu 19
TTITLE19=Tytu³ utworu 20
TTITLE20=Tytu³ utworu 21
TTITLE21=Tytu³ utworu 22
EXTD=
EXTT0=
EXTT1=
EXTT2=
EXTT3=
EXTT4=
EXTT5=
EXTT6=
EXTT7=
EXTT8=
EXTT9=
EXTT10=
EXTT11=
EXTT12=
EXTT13=
EXTT14=
EXTT15=
EXTT16=
EXTT17=
EXTT18=
EXTT19=
EXTT20=
EXTT21=
PLAYORDER=
